/* XPM */
static char *calendar[]={
"20 20 3 1",
"# c #00ffff",
". c #303030",
"a c #ffffff",
"....................",
".#################..",
".#################..",
".#################..",
"....................",
".aa.aa.aa.aa.aa.aa..",
".aa.aa.aa.aa.aa.aa..",
"....................",
".aa.aa.aa.aa.aa.aa..",
".aa.aa.aa.aa.aa.aa..",
"....................",
".aa.aa.aa.aa.aa.aa..",
".aa.aa.aa.aa.aa.aa..",
"....................",
".aa.aa.aa.aa.aa.aa..",
".aa.aa.aa.aa.aa.aa..",
"....................",
".aa.aa.aa.aa.aa.aa..",
".aa.aa.aa.aa.aa.aa..",
"...................."};
