/* XPM */
static char * portabase_xpm[] = {
"32 32 165 2",
"  	c None",
". 	c #BDB38E",
"+ 	c #BBAE83",
"@ 	c #BBAC7D",
"# 	c #CBBA86",
"$ 	c #D7C794",
"% 	c #BDB38D",
"& 	c #C5B482",
"* 	c #D7C48D",
"= 	c #DCC890",
"- 	c #D8CB9F",
"; 	c #BCB28A",
"> 	c #C1B180",
", 	c #D3C18B",
"' 	c #D5C28E",
") 	c #C7B78A",
"! 	c #D4CDAD",
"~ 	c #BEB695",
"{ 	c #BCB189",
"] 	c #BDAD7E",
"^ 	c #CFBD88",
"/ 	c #B2A684",
"( 	c #8F8A7A",
"_ 	c #A49B80",
": 	c #C8D7DE",
"< 	c #A69F84",
"[ 	c #9A885E",
"} 	c #C6B37F",
"| 	c #C0B188",
"1 	c #B8AC8B",
"2 	c #92825C",
"3 	c #8F7D54",
"4 	c #BFAE80",
"5 	c #968F7C",
"6 	c #ABA082",
"7 	c #C9BD96",
"8 	c #BFC9C8",
"9 	c #9D957E",
"0 	c #D6CCA5",
"a 	c #B9C0BB",
"b 	c #A28F63",
"c 	c #A7A38F",
"d 	c #B5A272",
"e 	c #93845F",
"f 	c #BDAA7B",
"g 	c #BFB28D",
"h 	c #968865",
"i 	c #B6A880",
"j 	c #B5A57D",
"k 	c #D9CD98",
"l 	c #DAE26F",
"m 	c #A0D08D",
"n 	c #75BFDE",
"o 	c #938157",
"p 	c #B0A17E",
"q 	c #8A795F",
"r 	c #94873B",
"s 	c #B8D777",
"t 	c #6ABDC9",
"u 	c #78BBCB",
"v 	c #CBC599",
"w 	c #D8CA9D",
"x 	c #B1A481",
"y 	c #9B8969",
"z 	c #7F7043",
"A 	c #BAC454",
"B 	c #7EC4B3",
"C 	c #67B9D5",
"D 	c #BAC3A3",
"E 	c #D9C999",
"F 	c #9B9172",
"G 	c #B3A077",
"H 	c #6A594B",
"I 	c #5A4A42",
"J 	c #EBE331",
"K 	c #6CB9C2",
"L 	c #9CB6A9",
"M 	c #988C6B",
"N 	c #C3B07D",
"O 	c #625146",
"P 	c #77683E",
"Q 	c #EBEA3A",
"R 	c #5CA4C3",
"S 	c #998D6D",
"T 	c #9A8A66",
"U 	c #A59779",
"V 	c #C9B889",
"W 	c #848282",
"X 	c #8E8C81",
"Y 	c #9FA08B",
"Z 	c #808184",
"` 	c #D9CA9A",
" .	c #BAC7CD",
"..	c #6C6557",
"+.	c #7B7C7D",
"@.	c #848586",
"#.	c #C3C4C5",
"$.	c #DCDAD6",
"%.	c #9F916F",
"&.	c #C5B892",
"*.	c #939598",
"=.	c #868581",
"-.	c #98A0A5",
";.	c #58585A",
">.	c #B1B2B3",
",.	c #E1E1DF",
"'.	c #94835D",
").	c #AA9E82",
"!.	c #BBB29E",
"~.	c #B7AE94",
"{.	c #948F7F",
"].	c #CEBC8C",
"^.	c #99927D",
"/.	c #A5AFB5",
"(.	c #606162",
"_.	c #DEDFE0",
":.	c #B5AB95",
"<.	c #817355",
"[.	c #5E5C59",
"}.	c #969798",
"|.	c #C6B68D",
"1.	c #A5A196",
"2.	c #909295",
"3.	c #787774",
"4.	c #5F6062",
"5.	c #656567",
"6.	c #959799",
"7.	c #B8B6B2",
"8.	c #9FA0A1",
"9.	c #E4E0D2",
"0.	c #979897",
"a.	c #898B8E",
"b.	c #767573",
"c.	c #999B9E",
"d.	c #9EA0A3",
"e.	c #88898C",
"f.	c #696A6B",
"g.	c #7B7C7E",
"h.	c #8C8E90",
"i.	c #E7E8E9",
"j.	c #AB9872",
"k.	c #A1987A",
"l.	c #0D0C09",
"m.	c #3A3D3F",
"n.	c #696A6C",
"o.	c #A8A9AA",
"p.	c #727375",
"q.	c #D9CA9B",
"r.	c #5C5C5E",
"s.	c #BABBBC",
"t.	c #727374",
"u.	c #E4E6E8",
"v.	c #5F5F62",
"w.	c #606163",
"x.	c #C4C7CA",
"y.	c #DFE3E6",
"z.	c #6E7174",
"A.	c #DFE4E6",
"B.	c #D4D9DB",
"C.	c #646668",
"D.	c #66676A",
"E.	c #8E9294",
"F.	c #686A6C",
"G.	c #838588",
"H.	c #CDD1D4",
"                                                                ",
"                                                                ",
"                                                                ",
"                                                                ",
"                              . + @ @ @ @ @ @ @ @ @ @ # $       ",
"                          % @ @ @ @ @ @ @ @ @ @ @ & * = -       ",
"                      ; @ @ @ @ @ @ @ @ @ @ @ > , = ' ) !       ",
"                ~ { @ @ @ @ @ @ @ @ @ @ @ ] ^ = = / ( _         ",
"        : : : < [ [ [ [ [ [ [ [ [ [ [ [ [ } = | ( | | 1         ",
"              2 3 3 3 3 3 3 3 3 3 3 3 3 3 4 5 6 = = 6 7         ",
"          : 8 3 3 3 3 3 3 3 3 3 3 3 3 3 3 _ ' = = = 9 0         ",
"          : a 3 3 3 3 3 3 3 3 3 3 3 3 3 b 5 = = = = 9 !         ",
"            c 3 3 3 3 3 3 3 3 3 3 3 3 3 d 9 = = = = _           ",
"            e 3 3 3 3 3 3 3 3 3 3 3 3 3 f _ = = ' 5 g           ",
"            h 3 3 3 3 3 3 3 3 3 3 3 3 3 i | = _ 9 j k l m n     ",
"            3 3 3 3 3 3 3 3 3 3 3 3 3 o _ 6 5 p q r s t u v w   ",
"            3 3 3 3 3 3 3 3 3 3 3 3 3 b 6 x y z A B C D = = E   ",
"          F 3 3 3 3 3 3 3 3 3 3 3 3 3 d G H I J K L = = = =     ",
"          M 3 3 3 3 3 3 3 3 3 3 3 3 3 N O I P Q R | = = = =     ",
"  : : : : S T U U 3 3 3 3 3 3 3 3 3 3 V W W X Y Z ' = = = `     ",
"         ...+.@.#.$.%.3 3 3 3 3 3 3 o &.*.*.*.*.=.= = = = w     ",
"    : -.;.;.;.;.;.>.,.'.3 3 ).!.!.T b ~.*.*.*.*.{.= = ].^.      ",
"    /.;.;.;.;.;.;.(._.:.<.[.;.;.}.,.|.1.*.*.*.2._ ' _ 3.        ",
"    4.;.5.6.6.5.;.;.#.7.;.;.;.;.;.8.9.0.*.*.*.a.5 b.            ",
"    ;.;.c.d.d.e.;.;.>.f.;.g.h.5.;.f.i.j.= k.l.m.                ",
"    ;.n.d.d.d.e.;.;.o.;.p.d.d.h.;.;.i.q.                        ",
"    ;.r.c.d.d.n.;.;.s.;.g.d.d.e.;.t.u.                          ",
"    v.;.w.g.n.;.;.}.x.;.5.6.2.5.;.8.y.                          ",
"    z.;.;.;.;.;.t.A.  z.;.;.;.;.t.B.                            ",
"      C.D.;.f.E.y.      F.;.;.G.H.                              ",
"                                                                ",
"                                                                "};
