/* XPM */
static char * portabase_xpm[] = {
"32 32 181 2",
"  	c None",
". 	c #4A412D",
"+ 	c #61553C",
"@ 	c #6E6044",
"# 	c #6C5F43",
"$ 	c #62573D",
"% 	c #4B422E",
"& 	c #847555",
"* 	c #B09C72",
"= 	c #A28E66",
"- 	c #A08C64",
"; 	c #867857",
"> 	c #4C422E",
", 	c #544A34",
"' 	c #AB9A73",
") 	c #BBA77B",
"! 	c #A18D65",
"~ 	c #AC9B74",
"{ 	c #544B35",
"] 	c #5C513A",
"^ 	c #C3B085",
"/ 	c #D8C495",
"( 	c #C4B186",
"_ 	c #5E523B",
": 	c #6B5D42",
"< 	c #706246",
"[ 	c #9B8760",
"} 	c #7D6D4E",
"| 	c #857453",
"1 	c #7F6F4F",
"2 	c #98855F",
"3 	c #8C7B57",
"4 	c #907E5A",
"5 	c #94825C",
"6 	c #9E8B63",
"7 	c #96835D",
"8 	c #9D8962",
"9 	c #8F7D59",
"0 	c #9F8C64",
"a 	c #A2916F",
"b 	c #8D7B58",
"c 	c #6B7F59",
"d 	c #ACACAC",
"e 	c #AFAAA1",
"f 	c #AA9E86",
"g 	c #938360",
"h 	c #807050",
"i 	c #6B5E43",
"j 	c #9C8861",
"k 	c #877654",
"l 	c #867754",
"m 	c #798D73",
"n 	c #ABABAB",
"o 	c #B1B1B1",
"p 	c #BABABA",
"q 	c #BDBEBD",
"r 	c #A7AA9E",
"s 	c #919479",
"t 	c #7E8059",
"u 	c #877F59",
"v 	c #877754",
"w 	c #9B8761",
"x 	c #716246",
"y 	c #6E6045",
"z 	c #A38F66",
"A 	c #4A402D",
"B 	c #4D4F36",
"C 	c #979F95",
"D 	c #A8A8A8",
"E 	c #A7A7A7",
"F 	c #ADADAD",
"G 	c #B8B8B8",
"H 	c #C4C4C4",
"I 	c #CFCFCF",
"J 	c #CDCFCD",
"K 	c #A8B6A5",
"L 	c #7C9475",
"M 	c #566F49",
"N 	c #516340",
"O 	c #4F573A",
"P 	c #8B7A57",
"Q 	c #736548",
"R 	c #716348",
"S 	c #A69269",
"T 	c #5D654C",
"U 	c #AFAFAF",
"V 	c #B4B4B4",
"W 	c #D1D1D1",
"X 	c #D2D2D2",
"Y 	c #E4E4E4",
"Z 	c #DFE2DE",
"` 	c #B6C3B3",
" .	c #86927A",
"..	c #544A38",
"+.	c #76684B",
"@.	c #74664A",
"#.	c #A9956B",
"$.	c #808777",
"%.	c #A9A9A9",
"&.	c #AEAEAE",
"*.	c #BCBCBC",
"=.	c #C6C6C6",
"-.	c #BDBDBD",
";.	c #C5C5C5",
">.	c #E1E1E1",
",.	c #CECECE",
"'.	c #DDDDDD",
").	c #F6F6F6",
"!.	c #645B4B",
"~.	c #796B4E",
"{.	c #776A4D",
"].	c #AC986E",
"^.	c #736447",
"/.	c #4E4430",
"(.	c #747163",
"_.	c #7D786D",
":.	c #7A7469",
"<.	c #7B756B",
"[.	c #7D776C",
"}.	c #7E796E",
"|.	c #807B70",
"1.	c #827D72",
"2.	c #857F74",
"3.	c #918B80",
"4.	c #8D877C",
"5.	c #8F8A7F",
"6.	c #908A7F",
"7.	c #8F887C",
"8.	c #4E432F",
"9.	c #7D6E50",
"0.	c #7B6D50",
"a.	c #AF9B71",
"b.	c #77684A",
"c.	c #807153",
"d.	c #7E7053",
"e.	c #B29E73",
"f.	c #837456",
"g.	c #817355",
"h.	c #B4A076",
"i.	c #867759",
"j.	c #847658",
"k.	c #B8A479",
"l.	c #897B5B",
"m.	c #87795B",
"n.	c #BAA67B",
"o.	c #766749",
"p.	c #78684A",
"q.	c #766649",
"r.	c #8C7E5E",
"s.	c #8B7C5D",
"t.	c #D0BC8E",
"u.	c #77684B",
"v.	c #94815C",
"w.	c #8F8161",
"x.	c #35322B",
"y.	c #665A42",
"z.	c #8E8060",
"A.	c #6C5E44",
"B.	c #897855",
"C.	c #6C5E43",
"D.	c #685C43",
"E.	c #36322B",
"F.	c #3D3A33",
"G.	c #43403B",
"H.	c #5E523C",
"I.	c #7F6E4E",
"J.	c #5E533C",
"K.	c #353535",
"L.	c #544935",
"M.	c #67593F",
"N.	c #312F2B",
"O.	c #383632",
"P.	c #3E3C39",
"Q.	c #44433F",
"R.	c #494744",
"S.	c #4B4946",
"T.	c #4C4B48",
"U.	c #4D4C49",
"V.	c #393939",
"W.	c #3A3A3A",
"X.	c #3B3B3B",
"                                                                ",
"                . + @ # # # # # # # # # # @ $ .                 ",
"              % & * = - - - - - - - - - - = * ; >               ",
"            , ' ) ! - - - - - - - - - - - - ! ) ~ {             ",
"          ] ^ / / / / / / / / / / / / / / / / / / ( _           ",
"          : - - - - - - - - - - - - - - - - - - - - <           ",
"          : - [ } | | | | | | | | | | | | | | 1 2 - <           ",
"          : - 2 3 - - - - - - - - - - - - - - 4 5 - <           ",
"          : - 2 3 - - - - - - - - - - - - - - 4 5 - <           ",
"          : - 2 3 - - - - - - - - - - - - - - 4 5 - <           ",
"          : - 2 3 - - - 6 7 7 7 7 7 7 6 - - - 4 5 - <           ",
"          : - 2 3 - - - 8 9 9 9 9 9 9 8 - - - 4 5 - <           ",
"          : - 2 3 - - - - - - - - - - - - - - 4 5 - <           ",
"          : - 2 3 - 0 a - - - - - - - - - - - 4 5 - <           ",
"          : - 2 } b c d e f g b b b b b b b b h 5 - <           ",
"          i - j k l m n o p q r s t u v k k k k w - x           ",
"          y z 9 A B C D E F G H I J K L M N O A P z Q           ",
"          R S 9 A T n o D F U V W H X Y Z `  ...P S +.          ",
"          @.#.9 A $.F %.D &.&.*.=.-.;.>.,.'.).!.P #.~.          ",
"          {.].^./.(._.:.<.[.}.|.1.2.3.4.5.6.7.8.x ].9.          ",
"          0.a.b.- - - - - - - - - - - - - - - - b.a.c.          ",
"          d.e.b.- - - - - - - - - - - - - - - - b.e.f.          ",
"          g.h.b.- - - - - - - - - - - - - - - - b.h.i.          ",
"          j.k.b.- - - - - - - - - - - - - - - - b.k.l.          ",
"          m.n.o.8 8 8 8 p.q.q.q.q.q.q.p.8 8 8 8 o.n.r.          ",
"          s.t.u.v.v.v.v.v.v.v.v.v.v.v.v.v.v.v.v.b.t.w.          ",
"        x.y.z.A.B.B.B.B.B.B.B.B.B.B.B.B.B.B.B.B.C.z.D.E.        ",
"          F.G.H.I.I.I.I.I.I.I.I.I.I.I.I.I.I.I.I.J.G.F.          ",
"            K.L.M.M.M.M.M.M.M.M.M.M.M.M.M.M.M.M.L.K.            ",
"              N.O.P.Q.R.S.T.U.U.U.U.T.S.R.Q.P.O.N.              ",
"                        K.V.W.X.X.W.V.K.                        ",
"                                                                "};
