/* XPM */
static char *kfm[] = {
/* columns rows colors chars-per-pixel */
"16 16 14 1",
"  c black",
". c #191919",
"X c gray20",
"o c #7F0000",
"O c #4C4C4C",
"+ c #666667",
"@ c gray50",
"# c yellow",
"$ c gray60",
"% c #B2B2B2",
"& c gray80",
"* c gray90",
"= c gray100",
"- c None",
/* pixels */
"-++++O++XO------",
"+==%&&&&%&  ----",
"+&&==%   .&& ---",
"O&&%=.&&&&    --",
"+%%%= *##.&&*#.-",
"+%%%= %&$.&&&& -",
"+%%%= ++&+&%&& -",
"+%$%=+  ++&&%& -",
"+%$$=@&$o      -",
"+$$$=@%&&&&+ ---",
"+$$$=&@@@@@% ---",
"+@$@=@&&&&&+ ---",
"O@$@=@&@O@%+ ---",
"O@@$=@&%%&&+ ---",
"-  $=&+++++& ---",
"---          ---"
};
