/* XPM */
static char *portabase[] = {
/* columns rows colors chars-per-pixel */
"16 16 39 1",
"  c black",
". c gray28",
"X c #626262",
"o c #FFAA5A",
"O c #838183",
"+ c gray54",
"@ c #8B8B8B",
"# c #8D8D8D",
"$ c gray56",
"% c #929292",
"& c #939393",
"* c gray59",
"= c #989898",
"- c #9A9A9A",
"; c gray61",
": c gray62",
"> c #A0A0A0",
", c #A2A2A2",
"< c #A4A1A4",
"1 c #A5A5A5",
"2 c gray65",
"3 c #A9A9A9",
"4 c gray67",
"5 c gray68",
"6 c #AFAFAF",
"7 c #B1B1B1",
"8 c gray70",
"9 c gray71",
"0 c gray72",
"q c #B9B9B9",
"w c #BCBCBC",
"e c gray",
"r c #FFDEAC",
"t c #C0C0C0",
"y c gray76",
"u c #C5C2C5",
"i c #C5C5C5",
"p c gray100",
"a c None",
/* pixels */
"aXXXXXXX..aaaaaa",
"Xppuuuuuuu  aaaa",
"Xiippu    uu aaa",
"Xittp rrrr    aa",
"Xeeqp roo rrrr a",
"Xq99p uuo rrrr a",
"X774p XXuXuuuu a",
"X431pX  XXuuuu a",
"X1::pOu<.      a",
"X::-pOuuuuuX aaa",
"X-**puOOOOOu aaa",
"X&##pOuuuuuX aaa",
".@@@pOuO.OuX aaa",
".O@@pOuuuuuX aaa",
"a  @puXXXXXu aaa",
"aaa          aaa"
};
