/* XPM */
static char *QtaDatePickerNext[]={
"11 11 2 1",
"# c None",
". c #303030",
".##########",
"...########",
".....######",
".......####",
".........##",
"...........",
".........##",
".......####",
".....######",
"...########",
".##########"};
